<?xml version="1.0" encoding="UTF-8"?>
<svg width="48px" height="48px" viewBox="0 0 48 48" version="1.1" xmlns="http://www.w3.org/2000/svg" xmlns:xlink="http://www.w3.org/1999/xlink">
    <!-- Generator: Sketch 47.1 (45422) - http://www.bohemiancoding.com/sketch -->
    <title>icon/g-communication/g25-exclamation-mark-rounded-pos-r</title>
    <desc>Created with Sketch.</desc>
    <defs></defs>
    <g id="Symbols" stroke="none" stroke-width="1" fill="none" fill-rule="evenodd">
        <g id="icon/g-communication/g25-exclamation-mark-rounded-pos-r">
            <rect id="Rectangle-path" fill-opacity="0" fill="#FFFFFF" fill-rule="nonzero" x="-3.091e-13" y="0" width="48" height="48"></rect>
            <path d="M27.0352,17.1885 L25.6072,28.4515 C25.5032,29.2815 24.7972,29.9035 23.9602,29.9035 C23.1232,29.9035 22.4162,29.2795 22.3132,28.4485 L20.9252,17.2065 L20.9252,11.1305 C20.9252,10.1115 21.7512,9.2865 22.7692,9.2865 L25.2002,9.2865 C26.2192,9.2865 27.0442,10.1115 27.0442,11.1305 L27.0352,17.1885 Z M22.6272,32.3795 L25.3612,32.3795 C26.3912,32.3715 27.2332,33.1995 27.2412,34.2305 C27.2422,34.2365 27.2422,34.2445 27.2422,34.2515 L27.2422,36.8735 C27.2422,37.9035 26.4062,38.7385 25.3762,38.7385 L22.6412,38.7385 C21.6112,38.7385 20.7762,37.9035 20.7762,36.8735 L20.7762,34.2515 C20.7732,33.2245 21.5992,32.3885 22.6272,32.3795 L22.6272,32.3795 Z M24.0002,1.3635 C11.5172,1.3635 1.3632,11.5185 1.3632,24.0005 C1.3632,36.4815 11.5172,46.6375 24.0002,46.6375 C36.4812,46.6375 46.6372,36.4815 46.6372,24.0005 C46.6372,11.5185 36.4812,1.3635 24.0002,1.3635 L24.0002,1.3635 Z M24.0002,48.0005 C10.7652,48.0005 0.0002,37.2335 0.0002,24.0005 C0.0002,10.7665 10.7652,0.0005 24.0002,0.0005 C37.2332,0.0005 48.0002,10.7665 48.0002,24.0005 C48.0002,37.2335 37.2332,48.0005 24.0002,48.0005 L24.0002,48.0005 Z" id="g25-esclamation-mark-rounded-pos" fill="#C5281C"></path>
        </g>
    </g>
</svg>