<svg xmlns="http://www.w3.org/2000/svg" width="1000" height="293.064">
  <g fill="white">
    <path d="M683.542 252.254c.399-5.251-1.055-9.865-3.934-14.23-2.935-4.445-4.402-9.247-2.191-14.542l.35-1.205c1.299-4.771.705-9.179-2.822-12.838-2.647-2.754-3.372-5.913-2.598-9.547 1.023-4.776.687-9.204-2.191-13.486-2.491-3.716-2.922-7.818-.942-12.214 1.673-3.69 2.766-7.675 3.826-11.602.825-3.06.831-6.3-.324-9.278-.937-2.429-.693-4.634-.112-7.025.618-2.522.962-5.126 1.299-7.705.262-1.985-.399-3.74-1.88-5.102-1.948-1.785-2.622-4.008-2.298-6.537.388-2.904.949-5.776-.567-8.573-.269-.487-.112-1.236-.069-1.861.375-5.045-.899-9.741-2.879-14.312-1.136-2.635-1.616-5.407-1.317-8.273.575-5.563.225-11.114-.742-16.565-1.043-5.863-2.686-11.608-3.922-17.44-.431-2.017-.711-4.139-.586-6.181.255-4.165.755-8.323 1.311-12.469.675-4.996 1.898-9.841 4.052-14.449 2.067-4.458 3.984-8.991 5.901-13.518.687-1.636 1.273-3.328 1.686-5.052.5-2.073.475-4.165-.78-6.05-1.667-2.504-3.865-2.972-6.051-.874-1.779 1.729-3.465 3.703-4.658 5.863-2.347 4.246-5.045 8.179-8.298 11.77-2.267 2.504-3.234 5.489-3.372 8.898-.256 6.625-1.768 12.832-6.568 17.845-1.368 1.43-2.566 3.041-3.671 4.689-1.112 1.636-2.279 3.328-2.911 5.17-1.504 4.339-3.14 8.71-3.908 13.218-1.018 6-2.592 11.808-4.184 17.665-1.323 4.864-3.584 8.86-6.993 12.37-2.16 2.223-3.672 4.858-4.614 7.767-1.131 3.484-2.117 7.006-3.06 10.547a30.644 30.644 0 00-.874 4.932c-.725 7.917-1.3 15.848-2.104 23.746-.194 1.873-.024 3.953-1.324 5.651l-.555-.486c-2.073-2.854-2.323-6.157-2.642-9.529-.737-7.905-1.542-15.791-1.224-23.752.094-2.404 0-4.814.074-7.218.063-1.967-.761-3.428-2.248-4.602-.567-.443-1.154-.855-1.811-1.343.119-1.48.237-2.935.351-4.383.268-3.534-.213-6.818-2.499-9.784-.817-1.049-1.173-2.71-1.16-4.084.03-3.546.361-7.099.644-10.64.218-2.935-.838-5.32-2.886-7.336-.524-.506-1.205-.918-1.58-1.511-.586-.924-1.436-1.992-1.379-2.953.18-3.428.48-6.881 1.148-10.24.524-2.648 1.729-5.152 2.485-7.762 1.361-4.721 2.784-9.422 3.858-14.211.55-2.448-.668-4.159-2.729-5.088-1.973-.906-3.622-.688-5.201 1.467a131.675 131.675 0 00-7.568 11.501c-1.018 1.754-1.436 3.902-1.892 5.926-.756 3.397-1.567 6.775-4.102 9.347-2.742 2.785-4.24 6.175-5.214 9.878-.156.612-.47 1.186-.831 2.073-1.711-4.408-2.41-4.839-6.119-3.953-.132-.599-.181-1.23-.412-1.786-1.03-2.491-2.99-2.878-4.839-.887-.774.825-1.561 1.773-1.942 2.816-1.43 3.928-2.872 7.862-3.99 11.876-1.111 4.027-1.673 8.205-2.753 12.238-2.385 8.879-4.14 17.945-7.968 26.4-.468 1.03-.644 2.204-.855 3.328-1.111 6.051-.942 12.07.337 18.083 1.53 7.155 1.381 14.348.263 21.542-.712 4.651-3.44 8.241-6.381 11.682-4.658 5.438-6.694 11.694-6.113 18.856.28 3.484 1.018 6.795 2.422 9.998 2.437 5.531 3.335 11.194 1.131 17.058a13.161 13.161 0 00-.762 3.041c-.331 2.598-.431 5.146.749 7.687.669 1.455.968 3.203.98 4.826.044 6.388-.106 12.77-.119 19.157-.006 1.13.206 2.292.513 3.385.431 1.586 1.354 2.885 3.048 3.277 1.834.425 2.959-.774 3.907-2.065 1.698-2.317 2.897-4.878 3.185-7.757.525-5.176 2.224-9.958 4.246-14.698.912-2.159 1.287-4.639 1.442-6.999.3-4.633-.718-9.153-1.68-13.662-.237-1.105-.411-2.311-.219-3.403.956-5.376 3.011-10.353 7.101-14.023 3.365-3.041 4.764-6.476 4.184-10.858-.132-1.043-.051-2.117-.27-3.135-.692-3.153-.28-6.194.425-9.304.962-4.277 2.048-8.579 2.404-12.931.593-7.226 1.829-14.293 3.528-21.312 1.186-4.871 1.205-9.704-.531-14.518-1.686-4.683-1.536-9.428.094-14.167.812-2.367 1.261-4.852 2.041-7.231.862-2.635 1.462-5.432 3.91-8.111.199 1.518.474 2.498.431 3.453a203.867 203.867 0 01-.7 9.373c-.393 4.04.469 7.505 4.053 9.872 1.592 1.042 2.41 2.548 2.717 4.396.317 1.855 1.248 3.603 2.84 4.334 3.771 1.742 4.402 4.982 4.752 8.498l.094.936c.743 6.256 1.842 12.357 4.951 18.026 1.256 2.286 1.425 5.189 1.979 7.83.375 1.73.219 3.635.881 5.227 1.305 3.165 1.087 6.307.756 9.565-.681 6.938 1.192 10.946 7.336 12.164 1.518.299 2.367 1.224 2.511 2.791.156 1.555.361 3.109.562 4.664.524 4.059 1.156 8.105 3.69 11.514 1.48 1.992 3.371 3.142 5.964 2.542 2.135-.5 3.902-2.679 4.139-5.332.225-2.398.419-4.821.281-7.212-.375-6.519 1.537-12.369 4.64-17.989.887-1.605 1.586-3.453 1.835-5.265.45-3.303.606-6.661.706-10.003.181-6.031 1.268-11.669 6.119-15.884l.631-.7c4.358-5.969 6.825-12.419 5.295-19.962-1.168-5.794-.162-11.439 1.38-17.021.3-1.093.749-2.148 1.137-3.222.53 1.287.53 2.436.53 3.584.007 3.547 1.093 6.563 4.146 8.68.763.53 1.406 1.255 2.023 1.966 1.512 1.755 2.316 3.734 1.655 6.082a248.451 248.451 0 01-1.905 6.631c-1.311 4.29-3.228 8.498-3.858 12.881-.893 6.219-.587 12.544 1.836 18.557.493 1.243.993 2.572 1.074 3.89.162 3.029.249 6.082.056 9.104-.668 10.19 2.11 19.231 8.698 27.062 1.711 2.023 1.86 4.152 1.224 6.719a66.191 66.191 0 00-1.724 10.765c-.305 3.884 1.299 6.931 5.17 8.417l.537.563c0 1.973.019 4.064-.012 6.149-.031 2.772.886 5.164 2.984 6.981 1.648 1.437 3.341 2.891 5.207 4.015 1.905 1.155 2.479 2.635 2.204 4.733-.262 1.967-.361 3.952-.492 5.938-.106 1.666.312 3.134 1.923 3.977 1.492.78 2.585-.125 3.702-.931l.605-.037.4.438c1.829 1.842 3.009 2.153 4.627 1.229 1.61-.924 1.947-2.272 1.36-4.62-.351-1.399-.733-2.885-.627-4.291M183.694 264.331c-.612-3.877-2.197-7.374-4.97-10.284-3.334-3.527-5.37-7.604-5.682-12.563-.362-5.695-3.627-9.448-8.797-11.446-1.699-.661-2.904-1.554-3.715-3.103-.968-1.849-2.073-3.646-2.878-5.563-1.024-2.429-2.81-4.064-5.214-4.596-2.804-.631-4.04-2.335-4.658-4.839-.231-.918-.543-1.817-.681-2.748-.942-6-4.221-10.396-9.366-13.431-1.642-.974-2.46-2.329-3.234-4.009-1.574-3.403-3.01-7.031-5.333-9.878-3.31-4.053-7.474-7.175-13.356-4.852l-.743-.206c-.711-1.492-1.355-3.153-2.254-4.665-2.198-3.665-3.634-3.989-7.318-1.866l-.505.031c-.319-.662-.662-1.393-1.024-2.123-1.261-2.522-2.392-5.127-3.827-7.549-1.287-2.174-2.841-4.146-5.882-4.003-.774.037-1.58-.687-2.947-1.329 1.53-1.063 2.322-1.768 3.234-2.217 2.841-1.418 4.989-3.479 6.063-6.476.487-1.349 1.393-2.098 2.61-2.473 1.492-.456 3.028-.861 4.577-.999 4.171-.375 6.937-2.86 8.966-6.132 2.092-3.372 3.634-7.068 4.284-11.052.331-2.061.693-3.934 2.816-5.188 1.005-.593 1.63-2.161 1.998-3.409.45-1.586.644-3.304.625-4.952-.031-2.866.687-5.263 2.747-7.399 3.772-3.877 4.839-8.673 3.959-13.937-.712-4.252-1.161-8.417.419-12.669 1.879-5.033.68-9.51-3.622-12.9-1.317-1.037-1.805-2.179-1.58-3.771.137-.931.231-1.874.274-2.816.15-3.228.337-6.456.356-9.69 0-.887-.313-1.936-.843-2.642-3.74-4.964-6.744-6.481-12.02-4.639-1.087.381-2.18.8-3.303.974-1.817.299-2.46-.287-2.654-2.117-.137-1.349-.156-2.722-.431-4.046-.55-2.778-2.154-4.127-5.008-4.277a12.705 12.705 0 00-3.122.194c-3.153.618-5.863.094-8.423-2.08-1.798-1.542-4.021-2.616-6.15-3.727-3.703-1.936-7.518-3.659-11.196-5.639-2.272-1.236-4.626-1.886-7.181-1.979-1.249-.05-2.535.125-3.759-.094-4.058-.73-7.337.75-10.446 3.179-3.465 2.704-6.993 5.338-10.615 7.83-4.758 3.278-9.909 4.92-15.71 3.066l-1.224-.25c-2.36-.743-4.49-.131-6.656.88-3.49 1.636-6.394 3.971-8.873 6.862-1.455 1.705-2.935 2.354-5.183 1.324-1.998-.906-3.153-.531-4.102 1.037-2.272 3.753-3.74 9.953.974 14.423.762.718 1.524 1.437 2.33 2.104 3.266 2.704 3.708 6.1 2.503 9.94-.524 1.692-1.105 3.391-1.417 5.126-1.268 7.149-.711 13.793 5.383 18.895 1.273 1.062 2.36 2.392 3.378 3.715 1.823 2.367 3.197 4.883 2.367 8.099-.625 2.422-.893 4.932-1.505 7.349-.519 2.042-.519 3.883.687 5.707.431.649.737 1.579.662 2.329-.199 1.96.219 3.727 1.062 5.463.906 1.854.98 3.697.394 5.757-.962 3.359-.593 6.631 1.773 9.459 1.011 1.205 1.923 2.479 2.934 3.684 1.505 1.786 2.248 3.678 1.542 6.076-.799 2.71-.381 5.295.843 7.898 2.598 5.538 4.284 11.408 4.309 17.546.006 3.479.337 7.118-1.748 10.347-1.761 2.717-.756 5.457 1.042 7.529 2.498 2.885 3.666 6.275 4.914 9.723.587 1.63.45 3.017-.468 4.459-2.754 4.339-2.904 8.997-1.786 13.893.787 3.44 2.335 6.5 4.208 9.397 1.336 2.066 2.341 4.202 2.716 6.612.313 2.048 1.124 3.765 2.748 5.126.512.431 1.011 1.156 1.067 1.799.337 3.408 1.149 6.769.169 10.266-.999 3.552-.175 5.438 3.066 7.367 2.173 1.292 2.972 3.129 3.097 5.426.094 1.773-.025 3.566.063 5.339.175 3.134 1.13 5.963 3.628 8.062 1.13.949 2.348 1.923 3.946 1.248 1.629-.674 2.292-2.135 2.323-3.796.043-1.979-.05-3.978-.181-5.957-.225-3.452-.1-6.73 3.447-8.679l.462-.419c3.722-3.689 4.109-7.562 1.524-12.145-1.898-3.372-2.766-6.95-1.068-10.789.668-1.512 1.225-3.179 1.343-4.814.106-1.599-.038-3.416-.73-4.814-1.343-2.697-3.109-5.195-4.777-7.73-2.616-3.971-4.096-8.022-1.28-12.544l.387-.855c2.672-4.876 2.909-9.747-.112-14.573-.924-1.475-1.043-2.891-.006-4.377 1.929-2.735 1.548-5.47.043-8.268a36.42 36.42 0 01-2.292-5.145c-1.199-3.372-.112-5.421 3.903-6.844 1.592 1.735 3.309 3.702 5.12 5.582 2.691 2.784 6.038 3.858 9.735 2.804 2.785-.793 4.433.362 5.788 2.41 1.442 2.186 2.666 4.508 4.146 6.656 1.18 1.704 2.466 3.384 3.965 4.808 1.567 1.505 2.791 1.305 4.358-.207 2.91-2.833 3.534-2.884 6.313.007 1.524 1.605 3.166 2.747 5.464 2.474 1.717-.213 2.81.505 3.49 2.01 1.455 3.234 3.016 6.425 4.352 9.703 1.674 4.121 4.44 5.42 8.43 3.734.574-.243 1.137-.524 1.723-.762 2.254-.911 2.485-.956 3.778 1.229a100.44 100.44 0 014.383 8.311c1.792 3.779 4.739 6.257 8.717 6.956 2.422.431 3.696 1.568 4.67 3.534.506 1.031 1.118 2.018 1.624 3.048 2.348 4.764 5.008 9.21 10.496 10.978l1.049.674c2.704 1.873 5.258 3.814 5.439 7.561.187 3.723 1.71 7.081 3.097 10.478.949 2.317 2.329 4.184 4.565 5.383 1.817.98 3.053 2.441 3.777 4.415.693 1.86 1.53 3.677 2.41 5.45 1.23 2.461 3.465 3.991 5.033 3.578 1.63-.431 2.491-2.223 2.41-5.301-.031-1.349-.724-2.847-.331-4.016 1.007-2.99.139-5.818-.311-8.665M88.429 131.164c-.649.412-1.474.581-2.242.75-1.705.399-3.484.568-5.139 1.118-1.873.625-3.728 1.411-5.451 2.385-1.324.756-2.604 1.761-3.559 2.928-1.374 1.692-2.991 2.866-5.202 3.753-.75-.63-1.467-1.374-2.31-1.942-3.697-2.492-5.932-2.672-8.885-.456-.806.606-1.749 1.012-3.341 1.911.3-1.973.381-3.259.712-4.477.306-1.099.93-2.104 1.336-3.178 1.249-3.297.868-4.677-2.142-6.588-1.236-.78-1.705-1.68-1.673-3.065.05-2.092.019-4.19.006-6.288-.012-3.091-1.243-5.401-4.127-6.794-1.936-.937-2.104-1.611-1.629-3.759.299-1.311.549-2.66.699-4.002.531-4.521-1.729-7.668-5.051-10.347-.568-.456-1.149-1.324-1.13-1.992.075-3.203-.993-6.406.263-9.622.793-2.042-.5-3.678-1.886-4.996-2.173-2.048-2.429-4.533-1.892-7.218.443-2.26 1.48-2.941 3.747-2.629.618.094 1.268.106 1.86.281 5.146 1.555 9.198-.399 12.782-3.921.593-.587 1.217-1.156 1.798-1.755 1.967-2.036 4.396-2.754 7.144-2.466 1.773.181 3.521.605 5.289.699 2.285.125 4.571.038 7.118.038 4.995 9.072 7.137 10.159 14.83 7.361 1.848 1.867 3.927 3.56 2.572 6.856-.618 1.518-.056 3.135 1.024 4.402 1.486 1.755 2.972 3.516 4.602 5.133 1.105 1.105 2.454 1.967 3.722 2.96-.812 1.342-1.199 2.054-1.655 2.71-1.854 2.679-2.223 4.552-.206 6.862 2.785 3.178 1.324 6.525 1.161 9.866l-.393.824c-1.985 2.236-4.009 4.452-5.988 6.694-1.96 2.217-2.547 4.989-2.997 7.78-.262 1.648-.355 3.329-.618 4.983-.346 2.141-1.251 4.014-3.149 5.201M997.936 129.072c-1.467-.711-2.871-.375-4.246.219-3.54 1.53-7.131 2.972-10.571 4.702-2.223 1.111-4.569 2.348-6.243 4.109-5.239 5.532-12.781 7.542-18.401 12.432l-.562.274c-5.033 2.029-9.973 4.358-15.136 5.988-4.502 1.418-9.129 2.272-12.163 6.581-.075-1.123.024-2.035.336-2.872.925-2.466.5-4.739-.842-6.888-.993-1.598-2.123-3.115-3.109-4.72-.476-.768-1.063-1.667-1.05-2.492.051-2.054-.861-3.546-2.01-5.12-.737-1.03-1.343-2.422-1.38-3.665-.194-6.475-.163-12.951-.288-19.419-.063-3.259-1.467-5.789-4.326-7.524-.831-.506-1.762-1.38-2.005-2.254-1.736-6.326-5.545-12.002-5.832-18.776-.038-.718-.25-1.455-.506-2.129-2.061-5.37-4.04-10.771-6.281-16.059-.924-2.186-2.36-4.19-3.766-6.132-.537-.725-1.86-1.592-2.473-1.374-.898.306-1.898 1.455-2.079 2.392-.324 1.705-.131 3.515-.063 5.289.175 5.414.394 10.84.605 16.347-3.409.762-4.233 3.035-4.04 5.757.263 3.641.687 7.262 1.1 10.883.237 2.073.768 4.122.83 6.194.113 4.077.044 8.167-.025 12.244-.074 4.571.668 8.992 2.636 13.113 1.636 3.458 2.653 7.03 2.822 10.839.094 1.98.2 3.972.138 5.952-.057 1.96.655 3.502 2.16 4.646 1.049.793 2.248 1.385 3.99 2.435-1.361 4.938-2.617 10.003-4.165 14.985-1.479 4.783-3.485 9.372-2.116 14.643.623 2.379-.332 3.354-2.705 4.171-1.479.513-3.027.844-4.488 1.411-3.791 1.479-7.65 2.835-11.296 4.634-3.141 1.555-3.322 3.546-1.1 6.287l.481.693-.362.587a31.12 31.12 0 01-2.173 1.236c-4.739 2.454-8.566 5.988-11.945 10.034-2.291 2.747-2.329 4.596-.468 7.399 2.167 3.253 2.116 4.34-.749 6.93-3.484 3.16-7.057 6.227-10.641 9.267-1.623 1.38-2.997 2.86-3.746 4.921-.25.692-.855 1.523-1.498 1.755-3.797 1.379-6.17 4.195-8.018 7.586-1.643 3.022-3.84 5.482-6.912 7.075-1.661.854-3.472 1.436-5.102 2.348-7.287 4.077-13.269 9.821-19.226 15.541-1.368 1.312-2.173 3.291-2.966 5.083-.831 1.854-1.229 3.84.692 5.432 1.618 1.336 3.547 1.343 5.839-.006l1.28-.899c4.245-3.565 8.423-7.205 12.737-10.684 1.6-1.293 3.397-2.554 5.313-3.19 3.747-1.249 7.624-2.142 11.495-3.01 4.184-.949 7.824-2.66 10.859-5.845 4.033-4.246 8.305-8.267 12.494-12.369.668-.649 1.387-1.305 2.18-1.779 2.709-1.636 4.688-3.959 5.825-6.813 2.011-5.07 5.357-9.191 8.823-13.256 1.555-1.83 3.277-3.534 4.726-5.452.919-1.211 1.761-2.627 2.124-4.09 1.148-4.521 3.733-7.829 7.58-10.352 5.332-3.509 10.564-7.137 15.872-10.689 2.322-1.549 4.021-3.578 5.282-6.076.793-1.567 1.805-3.065 2.93-4.42 3.228-3.903 7.367-6.313 12.257-7.75 7.842-2.304 13.417-7.461 16.945-14.773.925-1.91 2.329-3.203 4.028-4.239 1.148-.712 2.403-1.287 3.671-1.761 3.684-1.387 6.819-3.578 9.765-6.157 1.725-1.511 3.548-3.003 5.553-4.071 6.068-3.209 11.426-7.368 16.39-12.051 2.892-2.722 5.651-5.6 8.342-8.517 1.727-1.856 1.234-3.648-1.027-4.741M487.942 185.581c-1.742-4.171-3.291-8.349-3.01-13.013.194-3.216-.081-6.456.038-9.678.094-2.604.194-5.252.774-7.774 1.03-4.471 2.385-8.879 3.678-13.288.606-2.054.475-4.002-.862-5.65-1.898-2.354-2.104-4.989-1.461-7.711.8-3.347 1.874-6.637 2.761-9.966.318-1.192.68-2.447.618-3.659-.094-2.066-.912-3.978-2.96-4.82-2.186-.906-4.14-.063-5.639 1.617-1.03 1.156-2.104 2.423-2.66 3.841-.987 2.51-1.692 5.151-2.342 7.78-1.267 5.151-2.417 10.34-3.621 15.504l-.418 1.18c-2.46 3.796-3.315 8.067-3.89 12.457-.293 2.278-1.499 3.778-3.64 5.045-3.097 1.843-5.982 4.184-8.561 6.712-2.448 2.393-4.408 5.283-6.568 7.962.062-1.829-.037-3.685.281-5.457 1.111-6.157 2.398-12.289 3.59-18.445.593-3.072 1.237-6.157 1.624-9.26.193-1.617.169-3.39-.293-4.932-.575-1.905-1.736-3.672-4.078-3.815-2.229-.15-3.752 1.067-4.827 2.91a16.529 16.529 0 00-.956 1.973c-2.747 6.813-5.476 13.631-8.398 20.906-.974-4.446-2.791-7.675-7.78-6.531-1.748-2.904-2.179-5.92-2.772-8.873-.474-2.342-1.592-4.29-3.222-5.994-1.261-1.318-2.859-1.318-4.371-.762-1.542.575-2.579 1.68-2.579 3.553 0 1.555-.243 3.109-.356 4.67-.188 2.591-.5 5.189-.512 7.78-.006 2.71.156 5.439.468 8.136.468 4.034-1.998 6.682-4.109 9.892-1.042-2.124-2.085-3.834-2.747-5.689-.45-1.242-.25-2.696-.537-4.014-.456-2.036-1.143-4.016-1.605-6.051-.524-2.329-.949-4.683-1.349-7.025-.193-1.136-.137-2.303-.343-3.428-.999-5.432-2.554-10.764-2.573-16.365a20.986 20.986 0 00-.705-5.245c-.513-1.904-1.93-2.91-3.379-2.579-1.854.431-3.715 1.055-4.714 2.834-1.011 1.811-1.954 3.69-2.666 5.638-.75 2.055-1.193 4.221-1.754 6.344-.387 1.486-1.218 2.404-2.866 2.323-3.016-.137-4.533 1.754-5.607 4.183-.755 1.724-1.292 3.547-2.167 5.208-2.304 4.414-2.885 8.904-.98 13.606.649 1.604.799 3.24.194 4.889-2.08 5.675-3.079 11.757-6.45 16.959-.668 1.03-1.255 2.278-1.355 3.478-.175 2.029-.649 4.546.281 6.069 1.68 2.704 1.999 5.389 1.917 8.336a6.952 6.952 0 00.207 1.867c.487 1.923 1.998 3.296 3.652 3.384 1.823.087 2.947-.849 3.628-3.21.505-1.723 1.111-3.315 2.454-4.626 1.562-1.537 1.893-3.56 1.124-5.539-.618-1.623-.15-2.828.743-4.065.675-.93 1.48-1.797 2.011-2.796.512-.98 1.055-2.099 1.049-3.154-.031-3.521 1.86-6.031 3.896-8.76.712.543 1.137 1.062 1.68 1.255 2.491.855 3.377 2.922 4.071 5.151.98 3.197 1.736 6.476 2.96 9.572 1.673 4.265 3.684 8.393 5.582 12.576l.774.979c1.037 1.099 2.254 1.398 3.709.905 1.917-.631 3.066-1.936 3.079-3.909.012-4.17-.131-8.348-.244-12.524-.063-2.336-.218-4.678-.343-7.375 2.204 1.175 3.072 2.511 2.885 4.521-.088.931.075 1.898-.069 2.816-.568 3.608 1.779 5.588 4.14 7.543.905.743 2.029.756 2.891-.044 2.236-2.085 4.427-4.221 3.997-7.736-.119-.911-.144-1.904.081-2.785.868-3.378.55-6.625-.768-9.81-.438-1.049-.63-2.054.025-3.334 1.523 1.387 3.109 2.366 4.04 3.784 2.192 3.297 4.127 6.769 6.038 10.24 1.511 2.741 2.791 5.601 4.258 8.367.768 1.442 1.905 2.584 3.715 2.416 1.836-.175 3.066-1.161 3.578-3.022.318-1.167.787-2.291 1.249-3.608l.406.449.125.924c.255 4.271 2.572 6.9 6.487 8.343a27.324 27.324 0 013.965 1.805c5.12 2.865 10.92 1.797 14.574-2.742.575-.711 1.118-1.448 1.929-2.503.344 1.586.618 2.791.85 3.996.599 2.979 2.054 5.482 4.227 7.549 2.049 1.948 4.839 2.092 7.188.5 2.066-1.405 3.159-3.216 2.94-5.819-.397-4.644-1.546-9.065-3.325-13.342m-99.78-27.961c1.817-4.839 3.528-9.372 5.232-13.912l.812.206c0 2.385-.343 4.833.094 7.137.412 2.122 1.667 4.09 2.735 6.568h-8.873zm81.684 23.665c-1.055.874-1.848 2.067-2.847 3.029-1.711 1.66-3.853 1.366-4.19-.825-.318-2.029.231-4.221.568-6.313.331-2.049 1.18-3.516 3.441-4.421 2.017-.824 3.609-2.691 5.938-4.515.525 5.047 1.348 9.504-2.91 13.045M340.145 88.973c-2.242.375-4.589.562-6.669 1.399-2.497.999-4.976 2.329-7.099 3.977-6.351 4.933-12.557 10.065-18.77 15.179-1.542 1.274-2.885 2.841-5.114 2.629-1.923-.181-3.478.575-4.901 1.717-2.286 1.823-4.496 3.759-6.807 5.557-1.062.825-2.21 1.599-3.44 2.136-2.066.912-4.227 1.617-6.375 2.416-1.442-2.541-1.561-5.195-.15-7.948.575-1.111 1.062-2.316 1.262-3.534.593-3.584 1.398-7.156-.7-10.665-.63-1.049-.418-2.616-.531-3.958-.15-1.761.244-3.772-.462-5.245-1.187-2.454-.75-4.596.031-6.887.299-.893.625-1.78.868-2.685 1.081-3.99 1.43-8.036.605-12.113-.905-4.521-4.795-5.932-8.492-3.128-.668.5-1.33.999-1.936 1.455-3.709-.937-4.421-.837-6.05 1.585-.731 1.087-1.268 2.448-1.424 3.741-.206 1.854.075 3.759.037 5.644-.105 5.845.4 11.808-.581 17.502-1.273 7.38-2.947 14.761-5.694 21.823-.824 2.116-1.074 4.458-1.586 6.693-.481 2.129-.831 4.296-1.468 6.376-.993 3.284-2.267 6.487-3.253 9.784-.343 1.162-.362 2.504-.212 3.729.25 2.022 1.455 3.471 3.402 4.12 1.755.587 3.035-.324 4.103-1.604 1.261-1.53 2.485-3.091 3.777-4.608.556-.65 1.218-1.206 1.835-1.805l.743.418c-.437 1.773-.905 3.553-1.311 5.346-.306 1.311-.718 2.641-.737 3.965-.063 4.87-.75 9.51-3.353 13.799-1.086 1.799-1.705 4.246.144 5.819 2.017 1.724 1.78 3.603 1.411 5.664a1828.987 1828.987 0 01-3.553 19.431 13.63 13.63 0 01-1.043 3.278c-1.686 3.541-2.26 7.343-3.109 11.12-.905 4.059.98 6.632 3.384 9.186 1.455 1.555 2.916 1.717 4.383.199 1.424-1.467 2.897-3.19 3.497-5.07 1.236-3.896 2.566-7.717 4.314-11.407.437-.937.68-1.985.899-2.997.855-3.989 1.661-7.986 2.491-11.977.78-3.777 1.568-7.549 2.46-11.813 3.334 1.561 4.945-.624 6.681-2.697.387-.474 1.124-.655 1.873-1.062.7 1.86 1.055 3.565 1.942 4.927.887 1.354 2.323 2.359 3.49 3.54l.718 1.023c2.635 4.877 5.551 9.686 5.938 15.393.243 3.546 2.011 6.082 4.627 8.18 3.097 2.479 4.852 5.825 5.626 9.534 1.074 5.083 3.634 9.335 6.681 13.319 1.355 1.772 1.998 3.564 2.235 5.7.194 1.748.35 3.635 1.125 5.157 1.298 2.555 2.291 5.083 2.503 7.98.15 2.117 1.823 3.378 3.809 3.409 2.21.025 3.291-.894 3.828-3.297.093-.399.106-.824.175-1.448 3.141.05 4.695-.781 5.095-3.191.549-3.297.905-6.644-.387-9.909-.618-1.555-1.124-3.153-1.648-4.745-3.072-9.342-6.025-18.688-6.537-28.654-.132-2.354-1.405-4.827-2.71-6.894-2.217-3.496-3.891-7.036-4.552-11.201-.899-5.633-3.203-7.612-8.817-8.548-2.11-.356-4.021-1.006-5.351-2.892-3.016-4.276-6.119-8.491-9.166-12.731-.431-.6-.762-1.255-1.136-1.886-1.018-1.686-1.967-3.416-3.054-5.052-2.198-3.328-.98-7.243 2.792-8.692 2.347-.893 4.708-1.729 7.049-2.628 6.668-2.554 11.295-6.887 13.025-14.111 1.011-4.189 3.178-7.743 7.549-9.391.88-.331 1.661-.905 2.516-1.292 4.365-2.017 7.505-5.264 9.547-9.579.793-1.667 2.085-2.747 3.472-3.921 2.947-2.491 5.664-5.257 8.398-7.992.824-.818 1.355-1.88.693-3.128-.613-1.165-1.606-1.677-2.855-1.464M807.899 224.868c1.037-1.436 1.374-3.122.867-4.782-.816-2.686-1.734-5.357-2.827-7.949-1.793-4.202-2.816-8.373-2.079-13.087 1.154-7.418-.488-14.468-5.009-20.5-1.936-2.578-2.642-5.02-2.217-8.086.27-1.948.251-3.952-.898-5.781-2.623-4.165-5.139-8.386-9.673-10.902-1.586-.874-1.529-2.754.032-3.796.955-.631 2.092-.962 3.097-1.524 1.816-1.005 3.728-1.917 5.363-3.178 2.036-1.574 4.197-2.679 6.73-3.16.98-.188 1.924-.706 2.823-1.192 3.06-1.648 5.064-4.29 6.813-7.206 1.018-1.698 1.386-3.478 1.173-5.408-.137-1.248-.155-2.535-.499-3.727-.487-1.673-.837-3.628-1.942-4.827-2.085-2.279-3.428-4.958-5.076-7.474-.999-1.542-1.367-2.735-.286-4.515 1.592-2.61.968-4.939-1.256-7.037-2.46-2.298-5.276-3.335-8.635-2.573-2.804.63-5.401-.031-7.88-1.292-3.891-1.986-6.388-1.792-9.248 1.43-2.903 3.278-5.464 6.869-8.161 10.328-.425.542-.812 1.117-1.305 1.804-1.63-1.499-1.499-3.303-1.711-5.026-.475-3.834-.861-7.687-1.63-11.458-.455-2.241-1.967-3.216-3.722-3.229-1.916-.024-3.689 1.349-4.271 3.51-.236.861-.137 1.823-.168 2.741-.1 2.704-.038 5.42-.318 8.111-.531 5.189-1.667 10.347-1.798 15.542-.138 5.701-.975 11.214-2.186 16.753-.406 1.879-.193 3.921-.069 5.881.157 2.523 1.661 4.165 3.828 5.357 2.697 1.474 3.341 3.304 2.186 6.231-.644 1.655-1.53 3.21-2.173 4.871-1.105 2.848-1.287 5.781.243 8.504 1.654 2.954 1.705 5.788.774 9.023-.73 2.547-1.03 5.413-.687 8.028.442 3.373.474 6.657.068 9.985-.169 1.348-.33 2.741-.156 4.064.144 1.055.581 2.26 1.293 3.028 2.666 2.872 6.938 2.191 8.454-1.536.875-2.166 1.23-4.664 1.268-7.012.063-3.641.799-6.969 2.292-10.303 1.087-2.423 1.479-5.195 1.985-7.843.299-1.598.213-3.259.28-4.439.743.55 1.667 1.187 2.561 1.873 4.233 3.24 7.287 7.442 9.891 12.032.975 1.718 2.11 3.435 3.509 4.802 2.997 2.923 4.141 6.362 3.94 10.471-.094 1.961-.081 4.091.593 5.871 1.3 3.452 2.174 6.961 2.872 10.57.65 3.303 1.949 6.426 4.496 8.81 2.679 2.507 6.332 2.163 8.449-.778m-24.309-90.864c-.811 1.511-2.129 2.742-3.34 4.228-.737-.518-1.398-.749-1.667-1.211-1.212-2.085-2.653-3.915-4.546-5.47-.693-.568-.706-1.948-1.093-3.16 3.253-.755 5.052-2.479 6.15-5.213 1.867-4.614 2.91-5.089 9.166-4.496-4.596 3.103-4.564 6.806-3.578 10.958.315 1.318-.398 3.06-1.092 4.364"/>
    <path d="M808.823 149.659c-2.397.63-3.402 2.298-2.928 4.683.549 2.772 2.229 4.34 5.032 4.09 2.448-.218 4.439.656 6.601 1.474 3.253 1.236 5.738 4.283 9.803 3.791-.256.805-.318 1.348-.574 1.772-1.637 2.791-2.242 5.782-2.342 8.997-.05 1.462-.768 3.017-1.536 4.322-1.03 1.761-1.36 3.521-.83 5.407.418 1.504.899 3.034 1.661 4.383.905 1.604.955 2.916.174 4.651-1.667 3.747-2.116 7.644-.049 11.496.33.624.592 1.398.562 2.085-.231 4.483.131 9.147-.999 13.394-1.58 5.907-1.718 11.771-1.58 17.721.063 2.723.624 5.445 2.323 7.692 1.629 2.148 3.659 1.967 5.014-.35.313-.531.48-1.154.668-1.755a704.012 704.012 0 002.704-8.984c.468-1.599 1.067-3.19 1.267-4.827.838-7.043 1.637-14.099 2.28-21.161.355-3.921.979-7.667 3.334-10.952.53-.742 1.005-1.679 1.074-2.56.225-3.01.643-6.063-.494-9.011-.524-1.348-.462-2.635.256-3.908 2.148-3.827 2.354-7.924 1.83-12.17-.243-1.936-.213-3.915-.307-5.869l.763-.556c1.086.506 2.379.78 3.222 1.555 3.59 3.303 7.961 3.641 12.338 2.966 2.423-.38 4.24-.006 6.094 1.393 2.398 1.816 5.151 2.754 8.168 2.872 4.239.149 5.857-1.305 6.05-5.407.856-.618 1.762-1.161 2.548-1.842 2.154-1.88 2.354-4.202.338-6.27-.986-1.018-2.279-1.892-3.604-2.391-1.741-.656-3.627-1.013-5.482-1.256-1.329-.174-2.328-.624-3.209-1.654-1.717-2.029-4.009-2.953-6.649-2.997-1.979-.031-3.965-.007-5.989-.007-2.666-3.671-3.483-3.933-8.447-3.271-2.129.274-4.314.812-6.801-.275.507-1.611.838-3.253 1.524-4.715 2.061-4.395 3.452-8.998 4.314-13.73.938-5.151 1.937-10.252 4.371-14.961l.187-.599c.544-3.615.65-7.093-2.453-9.822-2.473-2.167-2.529-2.735-.887-5.57 1.68-2.897 3.509-5.713 5.033-8.686.887-1.729 1.654-3.659 1.854-5.563.387-3.827-2.236-6.019-6.082-5.407-3.441.549-5.501 2.76-6.869 5.801-.979 2.179-2.041 4.321-3.085 6.487-2.672 5.545-5.487 11.021-6.275 17.284-.28 2.242-1.142 4.421-1.897 6.581-1.167 3.378-2.123 6.8-2.06 10.403.037 2.46-.5 4.746-1.593 6.956-1.474 2.997-1.867 6.12-1.205 9.46.743 3.747-.419 5.077-4.152 5.095-2.036.006-3.989.193-5.613 1.561-1.43 1.205-3.091 1.654-4.914 1.761a12.76 12.76 0 00-2.482.393M240.752 176.014c-3.74 2.691-6.182 2.717-9.972.069-1.118-.78-2.173-1.648-3.303-2.398-1.979-1.323-4.052-1.761-6.082-.112-1.23.993-2.479.968-3.791.294-2.204-1.143-4.265-.705-6.231.543-1.504.943-2.903 2.067-4.433 2.954-2.11 1.211-4.065.094-4.096-2.329a5.9 5.9 0 01.48-2.429c.674-1.523 1.474-2.991 2.292-4.44 1.03-1.811 2.335-3.502 3.16-5.401 1.892-4.37 1.199-6.53-2.616-9.06-.431-.287-.868-.562-1.562-1.012.543-4.046 3.141-6.425 5.888-8.729 3.684-3.085 7.405-6.132 10.952-9.373 1.986-1.817 3.303-4.089 1.917-6.924 1.979-1.249 3.971-1.724 6.113-1.705 1.78.013 3.56.019 5.339-.05 4.496-.175 8.417-1.604 11.177-5.363 1.168-1.599 1.71-3.422.725-5.302-.899-1.729-2.448-2.516-4.408-2.429-3.441.149-6.887.2-10.315.506-1.555.143-2.81.156-3.915-1.174-1.211-1.455-2.897-1.936-4.802-1.817-4.727.306-8.998 1.892-12.613 4.927-1.117.937-2.223 2.466-2.404 3.846-.443 3.484-2.354 5.108-5.569 5.688l-1.493.462c-6.256 1.792-8.323 4.333-9.179 10.702-.35 2.66-.706 5.526-1.929 7.824-1.749 3.247-2.666 6.525-2.866 10.127-.125 2.38-1.049 4.434-2.672 6.206-1.13 1.23-2.41 2.423-3.159 3.879-.987 1.904-1.836 3.996-2.18 6.106-.437 2.629 1.28 4.345 3.928 4.545.475.037.949.006 1.723.006-.681 1.169-1.361 1.992-1.686 2.948-.631 1.854-1.368 3.753-1.53 5.669-.256 2.997 1.167 4.396 4.221 4.633 1.46.119 2.928.051 4.395.082 3.048.075 4.003 1.08 3.41 4.064-.537 2.754.012 5.126 2.292 6.687 2.104 1.456 2.535 3.354 2.585 5.646.031 1.455.181 2.941.586 4.334.306 1.048.943 2.098 1.692 2.909 1.286 1.411 3.084 1.566 4.464.287a15.82 15.82 0 003.035-3.915c1.192-2.198 1.986-4.621 3.153-6.831.924-1.735 2.004-3.435 3.271-4.926 1.105-1.306 2.485-1.905 4.452-1.162 1.199.455 2.904.156 4.184-.331 1.53-.58 2.985-1.561 4.208-2.66 2.129-1.929 4.396-2.459 7.212-1.991 6.463 1.074 12.407-3.197 13.443-9.653.218-1.33-.063-3.004-.743-4.146-1.44-2.44-3.782-2.416-6.748-.281M740.951 158.837c-2.292-2.766-2.854-5.413-1.312-8.636.98-2.072 1.992-4.177 2.598-6.375 1.505-5.395 1.393-10.715-1.318-15.816-.567-1.068-.836-2.361-.961-3.578-.287-2.591-1.174-4.746-3.097-6.637-3.397-3.347-7.056-6.138-11.621-7.743-6.281-2.198-12.112-1.467-16.971 3.009-3.122 2.879-5.532 6.519-8.312 9.772-.861 1.005-1.798 2.036-2.896 2.735-4.864 3.091-8.654 6.968-9.604 12.913-.562 3.478-1.779 6.493-4.134 9.272-3.022 3.571-3.266 8.94-.668 12.27 3.428 4.401 4.046 9.259 3.348 14.529-.275 2.067-.406 4.152-.644 6.67.268 1.872.35 4.202.98 6.374.729 2.522 2.741 3.846 4.97 3.278 2.604-.675 4.415.53 6.382 1.761 1.567.986 3.19 1.91 4.889 2.647.999.438 1.704.899 2.229 1.93 1.679 3.29 3.739 4.389 7.449 3.672 2.847-.556 5.569-1.648 8.566-1.087.662.125 1.512-.131 2.11-.486 3.047-1.806 6.532-3.211 8.955-5.652 4.32-4.352 8.266-9.159 11.851-14.154 2.141-2.985 3.722-6.507 2.723-10.603-.948-3.889-3.077-7.111-5.512-10.065m-22.861 10.627c1.549 3.203 1.449 3.254 1.138 6.406-1.931.188-3.959.382-5.764.544-1.505-2.335-2.835-4.427-4.189-6.5-1.149-1.736-2.573-3.098-4.821-2.991-1.648.075-2.217-.899-2.485-2.247-.286-1.431-.523-2.879-.817-4.309-.83-4.016.112-7.531 3.185-10.253 3.003-2.661 4.208-5.714 3.528-9.76-.538-3.197 1.723-5.102 4.438-6.432-.468 2.011-.98 4.015-1.373 6.038-.813 4.109.899 7.118 4.215 9.379.78.53 1.636.937 2.41 1.474 1.992 1.373 2.397 2.535 1.636 4.839-.356 1.087-.867 2.129-1.305 3.197-1.456 3.567-1.518 7.069.204 10.615M166.111 141.498c-.119-3.934.556-7.692 1.948-11.358 1.031-2.71 1.567-5.576.256-8.254-1.456-2.973-1.792-5.944-1.211-9.116v-1.255c-.163-2.404-1.299-3.578-3.715-3.803-2.154-.187-4.134.299-5.957 1.517-.637.431-1.479.837-2.204.793-3.802-.231-5.22.824-4.739 4.489.512 3.971.037 7.693-1.349 11.376-.219.581-.275 1.218-.406 1.836-.475 2.254-.163 4.177 2.204 5.246 1.505.68 1.854 2.016 1.599 3.409-.244 1.312-.787 2.579-1.287 3.828-.849 2.136-1.898 4.196-2.628 6.362-1.193 3.566-.824 6.838 2.385 9.31 1.255.968 1.904 2.235 1.835 3.796-.137 3.123-.144 6.264-.574 9.348-.287 2.11-.681 4.165.256 6.145.855 1.798.993 3.628.556 5.501-.531 2.298-.05 4.358 1.224 6.263 1.155 1.718 1.573 3.609 1.517 5.657-.037 1.88-.006 3.766-.006 5.651h-.087c0 2.197-.069 4.401.019 6.6.106 2.66.699 5.207 2.622 7.199 2.129 2.198 4.671 1.941 6.301-.618.43-.699.831-1.517.917-2.317.281-2.478.706-5.001.525-7.467-.419-5.97.181-11.688 3.065-17.047.493-.898.643-1.979 1.012-2.96 1.567-4.083 1.08-7.998-.949-11.788l-.293-.557c-1.024-2.035-.987-3.983.262-5.956 1.005-1.586 1.761-3.341 2.816-4.896 2.392-3.49 2.054-8.011-2.604-10.739-2.586-1.512-3.235-3.548-3.31-6.195M154.06 96.391c2.448 1.998 5.301 2.723 8.229 1.661 3.022-1.093 4.477-3.628 4.714-6.818.318-4.283.93-8.479 1.96-12.669 1.105-4.508-1.642-7.3-6.675-6.6.269-1.511.543-2.709.681-3.927.438-3.609-2.223-6.968-5.382-6.606-2.41.275-4.652 1.162-6.363 3.06-1.911 2.123-2.579 5.438-1.011 7.824 1.405 2.111.993 3.802-.075 5.782-1.093 2.017-2.129 4.109-2.797 6.282-.894 2.954-.519 5.838 1.942 8.049 1.543 1.377 3.178 2.656 4.777 3.962M867.417 262.631v.601h-1.729v4.508h-.699v-4.508h-1.731v-.601M867.892 262.631h.986l1.48 4.316 1.468-4.316h.98v5.109h-.649v-2.99l.006-.55v-.769l-1.467 4.309h-.682l-1.504-4.309v.151l.037.574v3.584h-.655"/>
  </g>
</svg>
